<svg xmlns="http://www.w3.org/2000/svg" viewBox="0 0 720 240" role="img" aria-labelledby="title desc">
  <title id="title">The Ganga City</title>
  <desc id="desc">Logo for The Ganga City by Ganga Property</desc>
  <defs>
    <linearGradient id="roofGradient" x1="110" y1="38" x2="214" y2="142" gradientUnits="userSpaceOnUse">
      <stop offset="0" stop-color="#ef4444"/>
      <stop offset="1" stop-color="#a80f16"/>
    </linearGradient>
  </defs>
  <rect width="720" height="240" fill="none"/>
  <g transform="translate(48 34)">
    <path d="M116 8 216 91v96h-67v-58H83v58H16V91L116 8Z" fill="#fff"/>
    <path d="M116 8 216 91v30L116 38 16 121V91L116 8Z" fill="url(#roofGradient)"/>
    <path d="M45 96 116 37l71 59v67h-38v-47H83v47H45V96Z" fill="#d71920"/>
    <path d="M83 163v-47h66v47" fill="#fff"/>
    <rect x="102" y="85" width="28" height="24" rx="3" fill="#fff"/>
  </g>
  <g transform="translate(300 70)">
    <text x="0" y="48" font-family="Georgia, 'Times New Roman', serif" font-size="55" font-weight="700" fill="#d71920" letter-spacing="1">GANGA</text>
    <text x="2" y="100" font-family="Arial, Helvetica, sans-serif" font-size="36" font-weight="700" fill="#1f2937" letter-spacing="8">PROPERTY</text>
    <rect x="3" y="118" width="298" height="5" rx="2.5" fill="#d71920"/>
  </g>
</svg>
